<svg xmlns="http://www.w3.org/2000/svg" width="1200" height="760" viewBox="0 0 1200 760">
<rect width="100%" height="100%" fill="white"/>
<text x="600.0" y="44" text-anchor="middle" font-family="Arial" font-size="30" font-weight="600">Experiment 4: Distribution vs Latency</text>
<line x1="155" y1="80" x2="155" y2="605" stroke="#333"/>
<line x1="155" y1="605" x2="1130" y2="605" stroke="#333"/>
<text x="34" y="342.5" transform="rotate(-90 34 342.5)" text-anchor="middle" font-family="Arial" font-size="24">avg_total_time_ms</text>
<text x="642.5" y="718" text-anchor="middle" font-family="Arial" font-size="24">Distribution</text>
<line x1="155" y1="605.0" x2="1130" y2="605.0" stroke="#ddd"/>
<text x="141" y="612.0" text-anchor="end" font-family="Arial" font-size="20">0.00</text>
<line x1="155" y1="500.0" x2="1130" y2="500.0" stroke="#ddd"/>
<text x="141" y="507.0" text-anchor="end" font-family="Arial" font-size="20">4.40</text>
<line x1="155" y1="395.0" x2="1130" y2="395.0" stroke="#ddd"/>
<text x="141" y="402.0" text-anchor="end" font-family="Arial" font-size="20">8.79</text>
<line x1="155" y1="290.0" x2="1130" y2="290.0" stroke="#ddd"/>
<text x="141" y="297.0" text-anchor="end" font-family="Arial" font-size="20">13.2</text>
<line x1="155" y1="185.0" x2="1130" y2="185.0" stroke="#ddd"/>
<text x="141" y="192.0" text-anchor="end" font-family="Arial" font-size="20">17.6</text>
<line x1="155" y1="80.0" x2="1130" y2="80.0" stroke="#ddd"/>
<text x="141" y="87.0" text-anchor="end" font-family="Arial" font-size="20">22.0</text>
<text x="398.8" y="651" text-anchor="middle" font-family="Arial" font-size="20">uniform</text>
<text x="886.2" y="651" text-anchor="middle" font-family="Arial" font-size="20">hotspot</text>
<rect x="296.1" y="510.6" width="95.0" height="94.4" fill="#e67e22"/>
<rect x="783.6" y="118.9" width="95.0" height="486.1" fill="#e67e22"/>
<rect x="406.4" y="563.7" width="95.0" height="41.3" fill="#2ca02c"/>
<rect x="893.9" y="281.4" width="95.0" height="323.6" fill="#2ca02c"/>
<rect x="800" y="94" width="24" height="24" fill="#e67e22"/>
<text x="834" y="116" font-family="Arial" font-size="22">Segment Zonemap</text>
<rect x="800" y="132" width="24" height="24" fill="#2ca02c"/>
<text x="834" y="154" font-family="Arial" font-size="22">Column Sketch</text>
</svg>