<svg xmlns="http://www.w3.org/2000/svg" width="1200" height="760" viewBox="0 0 1200 760">
<rect width="100%" height="100%" fill="white"/>
<text x="600.0" y="44" text-anchor="middle" font-family="Arial" font-size="30" font-weight="600">Experiment 5: Predicate Type vs Latency</text>
<line x1="155" y1="80" x2="155" y2="605" stroke="#333"/>
<line x1="155" y1="605" x2="1130" y2="605" stroke="#333"/>
<text x="34" y="342.5" transform="rotate(-90 34 342.5)" text-anchor="middle" font-family="Arial" font-size="24">avg_total_time_s (ms)</text>
<text x="642.5" y="718" text-anchor="middle" font-family="Arial" font-size="24">Predicate Type</text>
<line x1="155" y1="605.0" x2="1130" y2="605.0" stroke="#ddd"/>
<text x="141" y="612.0" text-anchor="end" font-family="Arial" font-size="20">6.91</text>
<line x1="155" y1="500.0" x2="1130" y2="500.0" stroke="#ddd"/>
<text x="141" y="507.0" text-anchor="end" font-family="Arial" font-size="20">22.3</text>
<line x1="155" y1="395.0" x2="1130" y2="395.0" stroke="#ddd"/>
<text x="141" y="402.0" text-anchor="end" font-family="Arial" font-size="20">37.6</text>
<line x1="155" y1="290.0" x2="1130" y2="290.0" stroke="#ddd"/>
<text x="141" y="297.0" text-anchor="end" font-family="Arial" font-size="20">52.9</text>
<line x1="155" y1="185.0" x2="1130" y2="185.0" stroke="#ddd"/>
<text x="141" y="192.0" text-anchor="end" font-family="Arial" font-size="20">68.3</text>
<line x1="155" y1="80.0" x2="1130" y2="80.0" stroke="#ddd"/>
<text x="141" y="87.0" text-anchor="end" font-family="Arial" font-size="20">83.6</text>
<text x="276.9" y="651" text-anchor="middle" font-family="Arial" font-size="20">eq</text>
<text x="520.6" y="651" text-anchor="middle" font-family="Arial" font-size="20">lt</text>
<text x="764.4" y="651" text-anchor="middle" font-family="Arial" font-size="20">between</text>
<text x="1008.1" y="651" text-anchor="middle" font-family="Arial" font-size="20">conjunct</text>
<rect x="208.4" y="536.8" width="63.4" height="68.2" fill="#e67e22"/>
<rect x="452.2" y="531.5" width="63.4" height="73.5" fill="#e67e22"/>
<rect x="695.9" y="491.9" width="63.4" height="113.1" fill="#e67e22"/>
<rect x="939.7" y="344.2" width="63.4" height="260.8" fill="#e67e22"/>
<rect x="281.9" y="584.7" width="63.4" height="20.3" fill="#2ca02c"/>
<rect x="525.7" y="481.2" width="63.4" height="123.8" fill="#2ca02c"/>
<rect x="769.4" y="406.3" width="63.4" height="198.7" fill="#2ca02c"/>
<rect x="1013.2" y="145.8" width="63.4" height="459.2" fill="#2ca02c"/>
<rect x="800" y="94" width="24" height="24" fill="#e67e22"/>
<text x="834" y="116" font-family="Arial" font-size="22">Segment Zonemap</text>
<rect x="800" y="132" width="24" height="24" fill="#2ca02c"/>
<text x="834" y="154" font-family="Arial" font-size="22">Column Sketch</text>
</svg>