<svg xmlns="http://www.w3.org/2000/svg" width="1200" height="760" viewBox="0 0 1200 760">
<rect width="100%" height="100%" fill="white"/>
<text x="600.0" y="44" text-anchor="middle" font-family="Arial" font-size="30" font-weight="600">Experiment 5: Predicate Type vs Vectors Processed</text>
<line x1="155" y1="80" x2="155" y2="605" stroke="#333"/>
<line x1="155" y1="605" x2="1130" y2="605" stroke="#333"/>
<text x="34" y="342.5" transform="rotate(-90 34 342.5)" text-anchor="middle" font-family="Arial" font-size="24">avg_vectors_processed</text>
<text x="642.5" y="718" text-anchor="middle" font-family="Arial" font-size="24">Predicate Type</text>
<line x1="155" y1="605.0" x2="1130" y2="605.0" stroke="#ddd"/>
<text x="141" y="612.0" text-anchor="end" font-family="Arial" font-size="20">0</text>
<line x1="155" y1="500.0" x2="1130" y2="500.0" stroke="#ddd"/>
<text x="141" y="507.0" text-anchor="end" font-family="Arial" font-size="20">811</text>
<line x1="155" y1="395.0" x2="1130" y2="395.0" stroke="#ddd"/>
<text x="141" y="402.0" text-anchor="end" font-family="Arial" font-size="20">1,622</text>
<line x1="155" y1="290.0" x2="1130" y2="290.0" stroke="#ddd"/>
<text x="141" y="297.0" text-anchor="end" font-family="Arial" font-size="20">2,433</text>
<line x1="155" y1="185.0" x2="1130" y2="185.0" stroke="#ddd"/>
<text x="141" y="192.0" text-anchor="end" font-family="Arial" font-size="20">3,245</text>
<line x1="155" y1="80.0" x2="1130" y2="80.0" stroke="#ddd"/>
<text x="141" y="87.0" text-anchor="end" font-family="Arial" font-size="20">4,056</text>
<text x="276.9" y="651" text-anchor="middle" font-family="Arial" font-size="20">eq</text>
<text x="520.6" y="651" text-anchor="middle" font-family="Arial" font-size="20">lt</text>
<text x="764.4" y="651" text-anchor="middle" font-family="Arial" font-size="20">between</text>
<text x="1008.1" y="651" text-anchor="middle" font-family="Arial" font-size="20">conjunct</text>
<rect x="208.4" y="134.4" width="63.4" height="470.6" fill="#e67e22"/>
<rect x="452.2" y="118.9" width="63.4" height="486.1" fill="#e67e22"/>
<rect x="695.9" y="124.1" width="63.4" height="480.9" fill="#e67e22"/>
<rect x="939.7" y="124.1" width="63.4" height="480.9" fill="#e67e22"/>
<rect x="281.9" y="134.4" width="63.4" height="470.6" fill="#2ca02c"/>
<rect x="525.7" y="266.8" width="63.4" height="338.2" fill="#2ca02c"/>
<rect x="769.4" y="286.5" width="63.4" height="318.5" fill="#2ca02c"/>
<rect x="1013.2" y="286.5" width="63.4" height="318.5" fill="#2ca02c"/>
<rect x="800" y="94" width="24" height="24" fill="#e67e22"/>
<text x="834" y="116" font-family="Arial" font-size="22">Segment Zonemap</text>
<rect x="800" y="132" width="24" height="24" fill="#2ca02c"/>
<text x="834" y="154" font-family="Arial" font-size="22">Column Sketch</text>
</svg>