<svg xmlns="http://www.w3.org/2000/svg" width="1200" height="760" viewBox="0 0 1200 760">
<rect width="100%" height="100%" fill="white"/>
<text x="600.0" y="44" text-anchor="middle" font-family="Arial" font-size="30" font-weight="600">Experiment 2: Layout vs Latency</text>
<line x1="155" y1="80" x2="155" y2="605" stroke="#333"/>
<line x1="155" y1="605" x2="1130" y2="605" stroke="#333"/>
<text x="34" y="342.5" transform="rotate(-90 34 342.5)" text-anchor="middle" font-family="Arial" font-size="24">avg_total_time_ms</text>
<text x="642.5" y="718" text-anchor="middle" font-family="Arial" font-size="24">Physical Layout</text>
<line x1="155" y1="605.0" x2="1130" y2="605.0" stroke="#ddd"/>
<text x="141" y="612.0" text-anchor="end" font-family="Arial" font-size="20">0.00</text>
<line x1="155" y1="500.0" x2="1130" y2="500.0" stroke="#ddd"/>
<text x="141" y="507.0" text-anchor="end" font-family="Arial" font-size="20">15.9</text>
<line x1="155" y1="395.0" x2="1130" y2="395.0" stroke="#ddd"/>
<text x="141" y="402.0" text-anchor="end" font-family="Arial" font-size="20">31.9</text>
<line x1="155" y1="290.0" x2="1130" y2="290.0" stroke="#ddd"/>
<text x="141" y="297.0" text-anchor="end" font-family="Arial" font-size="20">47.8</text>
<line x1="155" y1="185.0" x2="1130" y2="185.0" stroke="#ddd"/>
<text x="141" y="192.0" text-anchor="end" font-family="Arial" font-size="20">63.8</text>
<line x1="155" y1="80.0" x2="1130" y2="80.0" stroke="#ddd"/>
<text x="141" y="87.0" text-anchor="end" font-family="Arial" font-size="20">79.7</text>
<text x="317.5" y="651" text-anchor="middle" font-family="Arial" font-size="20">random</text>
<text x="642.5" y="651" text-anchor="middle" font-family="Arial" font-size="20">sorted</text>
<text x="967.5" y="651" text-anchor="middle" font-family="Arial" font-size="20">block_sorted</text>
<rect x="204.1" y="266.4" width="70.0" height="338.6" fill="#e67e22"/>
<rect x="529.1" y="551.4" width="70.0" height="53.6" fill="#e67e22"/>
<rect x="854.1" y="551.5" width="70.0" height="53.5" fill="#e67e22"/>
<rect x="282.5" y="213.3" width="70.0" height="391.7" fill="#2ca02c"/>
<rect x="607.5" y="576.4" width="70.0" height="28.6" fill="#2ca02c"/>
<rect x="932.5" y="575.4" width="70.0" height="29.6" fill="#2ca02c"/>
<rect x="360.9" y="118.9" width="70.0" height="486.1" fill="#1f77b4"/>
<rect x="685.9" y="503.6" width="70.0" height="101.4" fill="#1f77b4"/>
<rect x="1010.9" y="503.0" width="70.0" height="102.0" fill="#1f77b4"/>
<rect x="800" y="94" width="24" height="24" fill="#e67e22"/>
<text x="834" y="116" font-family="Arial" font-size="22">Segment Zonemap</text>
<rect x="800" y="132" width="24" height="24" fill="#2ca02c"/>
<text x="834" y="154" font-family="Arial" font-size="22">Column Sketch</text>
<rect x="800" y="170" width="24" height="24" fill="#1f77b4"/>
<text x="834" y="192" font-family="Arial" font-size="22">RABIT GE</text>
</svg>